<svg id="visual" viewBox="0 0 900 100" width="900" height="100" xmlns="http://www.w3.org/2000/svg" xmlns:xlink="http://www.w3.org/1999/xlink" version="1.1"><rect x="0" y="0" width="900" height="100" fill="#151515"></rect><path d="M0 97L6.5 90.5C13 84 26 71 39 68.8C52 66.7 65 75.3 78 78C91 80.7 104 77.3 117.2 74.2C130.3 71 143.7 68 156.8 67.3C170 66.7 183 68.3 196 71C209 73.7 222 77.3 235 77.2C248 77 261 73 274 69C287 65 300 61 313 61C326 61 339 65 352 65.8C365 66.7 378 64.3 391 61.5C404 58.7 417 55.3 430.2 54.2C443.3 53 456.7 54 469.8 53.8C483 53.7 496 52.3 509 56.7C522 61 535 71 548 78.7C561 86.3 574 91.7 587 89.5C600 87.3 613 77.7 626 77.8C639 78 652 88 665 92.7C678 97.3 691 96.7 704 94.2C717 91.7 730 87.3 743.2 80.7C756.3 74 769.7 65 782.8 58.8C796 52.7 809 49.3 822 55.2C835 61 848 76 861 76C874 76 887 61 893.5 53.5L900 46L900 0L893.5 0C887 0 874 0 861 0C848 0 835 0 822 0C809 0 796 0 782.8 0C769.7 0 756.3 0 743.2 0C730 0 717 0 704 0C691 0 678 0 665 0C652 0 639 0 626 0C613 0 600 0 587 0C574 0 561 0 548 0C535 0 522 0 509 0C496 0 483 0 469.8 0C456.7 0 443.3 0 430.2 0C417 0 404 0 391 0C378 0 365 0 352 0C339 0 326 0 313 0C300 0 287 0 274 0C261 0 248 0 235 0C222 0 209 0 196 0C183 0 170 0 156.8 0C143.7 0 130.3 0 117.2 0C104 0 91 0 78 0C65 0 52 0 39 0C26 0 13 0 6.5 0L0 0Z" fill="#151515"></path><path d="M0 60L6.5 61.8C13 63.7 26 67.3 39 69.2C52 71 65 71 78 69.2C91 67.3 104 63.7 117.2 65.3C130.3 67 143.7 74 156.8 76.8C170 79.7 183 78.3 196 79.2C209 80 222 83 235 81.8C248 80.7 261 75.3 274 68.2C287 61 300 52 313 50.8C326 49.7 339 56.3 352 64C365 71.7 378 80.3 391 81.5C404 82.7 417 76.3 430.2 72.8C443.3 69.3 456.7 68.7 469.8 69.5C483 70.3 496 72.7 509 68.5C522 64.3 535 53.7 548 52.8C561 52 574 61 587 61.3C600 61.7 613 53.3 626 51.7C639 50 652 55 665 57.7C678 60.3 691 60.7 704 61.7C717 62.7 730 64.3 743.2 61.8C756.3 59.3 769.7 52.7 782.8 54.8C796 57 809 68 822 70.8C835 73.7 848 68.3 861 64.8C874 61.3 887 59.7 893.5 58.8L900 58L900 0L893.5 0C887 0 874 0 861 0C848 0 835 0 822 0C809 0 796 0 782.8 0C769.7 0 756.3 0 743.2 0C730 0 717 0 704 0C691 0 678 0 665 0C652 0 639 0 626 0C613 0 600 0 587 0C574 0 561 0 548 0C535 0 522 0 509 0C496 0 483 0 469.8 0C456.7 0 443.3 0 430.2 0C417 0 404 0 391 0C378 0 365 0 352 0C339 0 326 0 313 0C300 0 287 0 274 0C261 0 248 0 235 0C222 0 209 0 196 0C183 0 170 0 156.8 0C143.7 0 130.3 0 117.2 0C104 0 91 0 78 0C65 0 52 0 39 0C26 0 13 0 6.5 0L0 0Z" fill="#22261a"></path><path d="M0 78L6.5 72.3C13 66.7 26 55.3 39 52.2C52 49 65 54 78 55.3C91 56.7 104 54.3 117.2 54.8C130.3 55.3 143.7 58.7 156.8 58.5C170 58.3 183 54.7 196 54.2C209 53.7 222 56.3 235 54.8C248 53.3 261 47.7 274 44.3C287 41 300 40 313 44C326 48 339 57 352 58.8C365 60.7 378 55.3 391 55.5C404 55.7 417 61.3 430.2 61.7C443.3 62 456.7 57 469.8 53C483 49 496 46 509 45C522 44 535 45 548 51.7C561 58.3 574 70.7 587 70.8C600 71 613 59 626 54.2C639 49.3 652 51.7 665 50C678 48.3 691 42.7 704 45.7C717 48.7 730 60.3 743.2 62.2C756.3 64 769.7 56 782.8 50.3C796 44.7 809 41.3 822 39.7C835 38 848 38 861 43.5C874 49 887 60 893.5 65.5L900 71L900 0L893.5 0C887 0 874 0 861 0C848 0 835 0 822 0C809 0 796 0 782.8 0C769.7 0 756.3 0 743.2 0C730 0 717 0 704 0C691 0 678 0 665 0C652 0 639 0 626 0C613 0 600 0 587 0C574 0 561 0 548 0C535 0 522 0 509 0C496 0 483 0 469.8 0C456.7 0 443.3 0 430.2 0C417 0 404 0 391 0C378 0 365 0 352 0C339 0 326 0 313 0C300 0 287 0 274 0C261 0 248 0 235 0C222 0 209 0 196 0C183 0 170 0 156.8 0C143.7 0 130.3 0 117.2 0C104 0 91 0 78 0C65 0 52 0 39 0C26 0 13 0 6.5 0L0 0Z" fill="#2e391d"></path><path d="M0 75L6.5 69.8C13 64.7 26 54.3 39 48.8C52 43.3 65 42.7 78 43C91 43.3 104 44.7 117.2 43C130.3 41.3 143.7 36.7 156.8 35.2C170 33.7 183 35.3 196 37.7C209 40 222 43 235 46.8C248 50.7 261 55.3 274 53C287 50.7 300 41.3 313 42.7C326 44 339 56 352 55.8C365 55.7 378 43.3 391 40C404 36.7 417 42.3 430.2 49.7C443.3 57 456.7 66 469.8 67.7C483 69.3 496 63.7 509 56.8C522 50 535 42 548 42.5C561 43 574 52 587 52.5C600 53 613 45 626 40.7C639 36.3 652 35.7 665 35.8C678 36 691 37 704 43.5C717 50 730 62 743.2 65.8C756.3 69.7 769.7 65.3 782.8 62.2C796 59 809 57 822 55.5C835 54 848 53 861 56.2C874 59.3 887 66.7 893.5 70.3L900 74L900 0L893.5 0C887 0 874 0 861 0C848 0 835 0 822 0C809 0 796 0 782.8 0C769.7 0 756.3 0 743.2 0C730 0 717 0 704 0C691 0 678 0 665 0C652 0 639 0 626 0C613 0 600 0 587 0C574 0 561 0 548 0C535 0 522 0 509 0C496 0 483 0 469.8 0C456.7 0 443.3 0 430.2 0C417 0 404 0 391 0C378 0 365 0 352 0C339 0 326 0 313 0C300 0 287 0 274 0C261 0 248 0 235 0C222 0 209 0 196 0C183 0 170 0 156.8 0C143.7 0 130.3 0 117.2 0C104 0 91 0 78 0C65 0 52 0 39 0C26 0 13 0 6.5 0L0 0Z" fill="#3b4c21"></path><path d="M0 60L6.5 59.3C13 58.7 26 57.3 39 53.7C52 50 65 44 78 42.8C91 41.7 104 45.3 117.2 43.3C130.3 41.3 143.7 33.7 156.8 30.5C170 27.3 183 28.7 196 33.7C209 38.7 222 47.3 235 50.3C248 53.3 261 50.7 274 51.5C287 52.3 300 56.7 313 57.5C326 58.3 339 55.7 352 53.5C365 51.3 378 49.7 391 45.8C404 42 417 36 430.2 32.8C443.3 29.7 456.7 29.3 469.8 30.5C483 31.7 496 34.3 509 40.3C522 46.3 535 55.7 548 55.7C561 55.7 574 46.3 587 42.7C600 39 613 41 626 39.2C639 37.3 652 31.7 665 34C678 36.3 691 46.7 704 46.8C717 47 730 37 743.2 35.3C756.3 33.7 769.7 40.3 782.8 41.8C796 43.3 809 39.7 822 42.7C835 45.7 848 55.3 861 57.7C874 60 887 55 893.5 52.5L900 50L900 0L893.5 0C887 0 874 0 861 0C848 0 835 0 822 0C809 0 796 0 782.8 0C769.7 0 756.3 0 743.2 0C730 0 717 0 704 0C691 0 678 0 665 0C652 0 639 0 626 0C613 0 600 0 587 0C574 0 561 0 548 0C535 0 522 0 509 0C496 0 483 0 469.8 0C456.7 0 443.3 0 430.2 0C417 0 404 0 391 0C378 0 365 0 352 0C339 0 326 0 313 0C300 0 287 0 274 0C261 0 248 0 235 0C222 0 209 0 196 0C183 0 170 0 156.8 0C143.7 0 130.3 0 117.2 0C104 0 91 0 78 0C65 0 52 0 39 0C26 0 13 0 6.5 0L0 0Z" fill="#476023"></path><path d="M0 30L6.5 35C13 40 26 50 39 54.5C52 59 65 58 78 51.8C91 45.7 104 34.3 117.2 34.7C130.3 35 143.7 47 156.8 52C170 57 183 55 196 53.7C209 52.3 222 51.7 235 51.5C248 51.3 261 51.7 274 52C287 52.3 300 52.7 313 53.2C326 53.7 339 54.3 352 52C365 49.7 378 44.3 391 42.8C404 41.3 417 43.7 430.2 41.7C443.3 39.7 456.7 33.3 469.8 32.3C483 31.3 496 35.7 509 38.2C522 40.7 535 41.3 548 41.7C561 42 574 42 587 40.3C600 38.7 613 35.3 626 33.3C639 31.3 652 30.7 665 33C678 35.3 691 40.7 704 40.8C717 41 730 36 743.2 37.2C756.3 38.3 769.7 45.7 782.8 48.5C796 51.3 809 49.7 822 47.3C835 45 848 42 861 38.3C874 34.7 887 30.3 893.5 28.2L900 26L900 0L893.5 0C887 0 874 0 861 0C848 0 835 0 822 0C809 0 796 0 782.8 0C769.7 0 756.3 0 743.2 0C730 0 717 0 704 0C691 0 678 0 665 0C652 0 639 0 626 0C613 0 600 0 587 0C574 0 561 0 548 0C535 0 522 0 509 0C496 0 483 0 469.8 0C456.7 0 443.3 0 430.2 0C417 0 404 0 391 0C378 0 365 0 352 0C339 0 326 0 313 0C300 0 287 0 274 0C261 0 248 0 235 0C222 0 209 0 196 0C183 0 170 0 156.8 0C143.7 0 130.3 0 117.2 0C104 0 91 0 78 0C65 0 52 0 39 0C26 0 13 0 6.5 0L0 0Z" fill="#547525"></path><path d="M0 29L6.5 31.7C13 34.3 26 39.7 39 43C52 46.3 65 47.7 78 48.8C91 50 104 51 117.2 47.3C130.3 43.7 143.7 35.3 156.8 31.3C170 27.3 183 27.7 196 31C209 34.3 222 40.7 235 39.8C248 39 261 31 274 29.3C287 27.7 300 32.3 313 36.5C326 40.7 339 44.3 352 46.2C365 48 378 48 391 44.5C404 41 417 34 430.2 32.2C443.3 30.3 456.7 33.7 469.8 37.8C483 42 496 47 509 46.3C522 45.7 535 39.3 548 34.3C561 29.3 574 25.7 587 25.3C600 25 613 28 626 32.2C639 36.3 652 41.7 665 40.3C678 39 691 31 704 29.3C717 27.7 730 32.3 743.2 34.5C756.3 36.7 769.7 36.3 782.8 35.7C796 35 809 34 822 31.7C835 29.3 848 25.7 861 23.8C874 22 887 22 893.5 22L900 22L900 0L893.5 0C887 0 874 0 861 0C848 0 835 0 822 0C809 0 796 0 782.8 0C769.7 0 756.3 0 743.2 0C730 0 717 0 704 0C691 0 678 0 665 0C652 0 639 0 626 0C613 0 600 0 587 0C574 0 561 0 548 0C535 0 522 0 509 0C496 0 483 0 469.8 0C456.7 0 443.3 0 430.2 0C417 0 404 0 391 0C378 0 365 0 352 0C339 0 326 0 313 0C300 0 287 0 274 0C261 0 248 0 235 0C222 0 209 0 196 0C183 0 170 0 156.8 0C143.7 0 130.3 0 117.2 0C104 0 91 0 78 0C65 0 52 0 39 0C26 0 13 0 6.5 0L0 0Z" fill="#628b26"></path><path d="M0 33L6.5 34.5C13 36 26 39 39 37.5C52 36 65 30 78 30C91 30 104 36 117.2 38.8C130.3 41.7 143.7 41.3 156.8 39.7C170 38 183 35 196 30.8C209 26.7 222 21.3 235 23C248 24.7 261 33.3 274 34.5C287 35.7 300 29.3 313 28.3C326 27.3 339 31.7 352 30.5C365 29.3 378 22.7 391 24C404 25.3 417 34.7 430.2 37.5C443.3 40.3 456.7 36.7 469.8 35.2C483 33.7 496 34.3 509 34.2C522 34 535 33 548 30.3C561 27.7 574 23.3 587 24.8C600 26.3 613 33.7 626 35.5C639 37.3 652 33.7 665 31.7C678 29.7 691 29.3 704 30.7C717 32 730 35 743.2 33.3C756.3 31.7 769.7 25.3 782.8 25.7C796 26 809 33 822 33.8C835 34.7 848 29.3 861 27C874 24.7 887 25.3 893.5 25.7L900 26L900 0L893.5 0C887 0 874 0 861 0C848 0 835 0 822 0C809 0 796 0 782.8 0C769.7 0 756.3 0 743.2 0C730 0 717 0 704 0C691 0 678 0 665 0C652 0 639 0 626 0C613 0 600 0 587 0C574 0 561 0 548 0C535 0 522 0 509 0C496 0 483 0 469.8 0C456.7 0 443.3 0 430.2 0C417 0 404 0 391 0C378 0 365 0 352 0C339 0 326 0 313 0C300 0 287 0 274 0C261 0 248 0 235 0C222 0 209 0 196 0C183 0 170 0 156.8 0C143.7 0 130.3 0 117.2 0C104 0 91 0 78 0C65 0 52 0 39 0C26 0 13 0 6.5 0L0 0Z" fill="#6fa127"></path><path d="M0 30L6.5 28.2C13 26.3 26 22.7 39 22.2C52 21.7 65 24.3 78 23.8C91 23.3 104 19.7 117.2 19.8C130.3 20 143.7 24 156.8 25.7C170 27.3 183 26.7 196 26.7C209 26.7 222 27.3 235 29C248 30.7 261 33.3 274 34.3C287 35.3 300 34.7 313 34.3C326 34 339 34 352 33C365 32 378 30 391 28.3C404 26.7 417 25.3 430.2 25.3C443.3 25.3 456.7 26.7 469.8 27.3C483 28 496 28 509 28C522 28 535 28 548 27.3C561 26.7 574 25.3 587 25.5C600 25.7 613 27.3 626 26.3C639 25.3 652 21.7 665 18.8C678 16 691 14 704 12.8C717 11.7 730 11.3 743.2 14.8C756.3 18.3 769.7 25.7 782.8 27.3C796 29 809 25 822 25.2C835 25.3 848 29.7 861 29.7C874 29.7 887 25.3 893.5 23.2L900 21L900 0L893.5 0C887 0 874 0 861 0C848 0 835 0 822 0C809 0 796 0 782.8 0C769.7 0 756.3 0 743.2 0C730 0 717 0 704 0C691 0 678 0 665 0C652 0 639 0 626 0C613 0 600 0 587 0C574 0 561 0 548 0C535 0 522 0 509 0C496 0 483 0 469.8 0C456.7 0 443.3 0 430.2 0C417 0 404 0 391 0C378 0 365 0 352 0C339 0 326 0 313 0C300 0 287 0 274 0C261 0 248 0 235 0C222 0 209 0 196 0C183 0 170 0 156.8 0C143.7 0 130.3 0 117.2 0C104 0 91 0 78 0C65 0 52 0 39 0C26 0 13 0 6.5 0L0 0Z" fill="#7db826"></path><path d="M0 18L6.5 19.5C13 21 26 24 39 22.8C52 21.7 65 16.3 78 13.2C91 10 104 9 117.2 11.5C130.3 14 143.7 20 156.8 20.8C170 21.7 183 17.3 196 15.7C209 14 222 15 235 16.7C248 18.3 261 20.7 274 20.3C287 20 300 17 313 17.2C326 17.3 339 20.7 352 20.3C365 20 378 16 391 14C404 12 417 12 430.2 13C443.3 14 456.7 16 469.8 18.5C483 21 496 24 509 23.5C522 23 535 19 548 19.3C561 19.7 574 24.3 587 24.8C600 25.3 613 21.7 626 21.2C639 20.7 652 23.3 665 23C678 22.7 691 19.3 704 18.2C717 17 730 18 743.2 18.3C756.3 18.7 769.7 18.3 782.8 17.2C796 16 809 14 822 13C835 12 848 12 861 12.8C874 13.7 887 15.3 893.5 16.2L900 17L900 0L893.5 0C887 0 874 0 861 0C848 0 835 0 822 0C809 0 796 0 782.8 0C769.7 0 756.3 0 743.2 0C730 0 717 0 704 0C691 0 678 0 665 0C652 0 639 0 626 0C613 0 600 0 587 0C574 0 561 0 548 0C535 0 522 0 509 0C496 0 483 0 469.8 0C456.7 0 443.3 0 430.2 0C417 0 404 0 391 0C378 0 365 0 352 0C339 0 326 0 313 0C300 0 287 0 274 0C261 0 248 0 235 0C222 0 209 0 196 0C183 0 170 0 156.8 0C143.7 0 130.3 0 117.2 0C104 0 91 0 78 0C65 0 52 0 39 0C26 0 13 0 6.5 0L0 0Z" fill="#8bcf24"></path><path d="M0 6L6.5 7.2C13 8.3 26 10.7 39 12.5C52 14.3 65 15.7 78 16.7C91 17.7 104 18.3 117.2 17.3C130.3 16.3 143.7 13.7 156.8 12.7C170 11.7 183 12.3 196 11.5C209 10.7 222 8.3 235 8C248 7.7 261 9.3 274 8.8C287 8.3 300 5.7 313 6.7C326 7.7 339 12.3 352 12.3C365 12.3 378 7.7 391 8.5C404 9.3 417 15.7 430.2 16.5C443.3 17.3 456.7 12.7 469.8 10.2C483 7.7 496 7.3 509 8.2C522 9 535 11 548 11.8C561 12.7 574 12.3 587 11.3C600 10.3 613 8.7 626 10.2C639 11.7 652 16.3 665 16.3C678 16.3 691 11.7 704 10.7C717 9.7 730 12.3 743.2 14.7C756.3 17 769.7 19 782.8 17.3C796 15.7 809 10.3 822 10.5C835 10.7 848 16.3 861 17.8C874 19.3 887 16.7 893.5 15.3L900 14L900 0L893.5 0C887 0 874 0 861 0C848 0 835 0 822 0C809 0 796 0 782.8 0C769.7 0 756.3 0 743.2 0C730 0 717 0 704 0C691 0 678 0 665 0C652 0 639 0 626 0C613 0 600 0 587 0C574 0 561 0 548 0C535 0 522 0 509 0C496 0 483 0 469.8 0C456.7 0 443.3 0 430.2 0C417 0 404 0 391 0C378 0 365 0 352 0C339 0 326 0 313 0C300 0 287 0 274 0C261 0 248 0 235 0C222 0 209 0 196 0C183 0 170 0 156.8 0C143.7 0 130.3 0 117.2 0C104 0 91 0 78 0C65 0 52 0 39 0C26 0 13 0 6.5 0L0 0Z" fill="#99e720"></path><path d="M0 13L6.5 12C13 11 26 9 39 7.2C52 5.3 65 3.7 78 3.2C91 2.7 104 3.3 117.2 4C130.3 4.7 143.7 5.3 156.8 6.3C170 7.3 183 8.7 196 9.5C209 10.3 222 10.7 235 11C248 11.3 261 11.7 274 10.3C287 9 300 6 313 5.2C326 4.3 339 5.7 352 6.7C365 7.7 378 8.3 391 9.2C404 10 417 11 430.2 10C443.3 9 456.7 6 469.8 4.3C483 2.7 496 2.3 509 2.8C522 3.3 535 4.7 548 5.5C561 6.3 574 6.7 587 5.8C600 5 613 3 626 3.7C639 4.3 652 7.7 665 9.5C678 11.3 691 11.7 704 11.3C717 11 730 10 743.2 10.2C756.3 10.3 769.7 11.7 782.8 12C796 12.3 809 11.7 822 10.5C835 9.3 848 7.7 861 7.8C874 8 887 10 893.5 11L900 12L900 0L893.5 0C887 0 874 0 861 0C848 0 835 0 822 0C809 0 796 0 782.8 0C769.7 0 756.3 0 743.2 0C730 0 717 0 704 0C691 0 678 0 665 0C652 0 639 0 626 0C613 0 600 0 587 0C574 0 561 0 548 0C535 0 522 0 509 0C496 0 483 0 469.8 0C456.7 0 443.3 0 430.2 0C417 0 404 0 391 0C378 0 365 0 352 0C339 0 326 0 313 0C300 0 287 0 274 0C261 0 248 0 235 0C222 0 209 0 196 0C183 0 170 0 156.8 0C143.7 0 130.3 0 117.2 0C104 0 91 0 78 0C65 0 52 0 39 0C26 0 13 0 6.5 0L0 0Z" fill="#a7ff1a"></path></svg>